<?xml version="1.0" encoding="UTF-8"?>
<svg id="Camada_2" data-name="Camada 2" xmlns="http://www.w3.org/2000/svg" viewBox="0 0 996.5 175">
  <defs>
    <style>
      .cls-1 {
        opacity: .5;
      }

      .cls-1, .cls-2 {
        fill: #007680;
      }

      .cls-3 {
        fill: #5c564f;
      }

      .cls-4 {
        fill: #008c95;
      }
    </style>
  </defs>
  <g id="Camada_1-2" data-name="Camada 1">
    <g>
      <path class="cls-4" d="M439.23,85.35c0,38.22-16.57,72.15-54.99,72.15-23.59,0-41.92-15.6-44.46-35.29h16.96c2.14,11.89,13.45,19.69,27.49,19.69,27.49,0,38.41-23.59,38.41-52.06-6.82,10.92-20.47,19.5-37.83,19.5-26.91,0-46.99-20.28-46.99-45.43s20.67-46.41,48.94-46.41c35.29,0,52.45,29.25,52.45,67.85ZM354.41,63.91c0,16.57,11.89,30.42,32.56,30.42,19.5,0,32.76-13.84,32.76-30.42s-13.84-30.81-32.76-30.81c-20.08,0-32.56,13.84-32.56,30.81Z"/>
      <path class="cls-4" d="M548.81,85.35c0,38.22-16.57,72.15-54.99,72.15-23.59,0-41.92-15.6-44.46-35.29h16.96c2.14,11.89,13.45,19.69,27.49,19.69,27.49,0,38.41-23.59,38.41-52.06-6.82,10.92-20.47,19.5-37.83,19.5-26.91,0-46.99-20.28-46.99-45.43s20.67-46.41,48.94-46.41c35.29,0,52.45,29.25,52.45,67.85ZM463.99,63.91c0,16.57,11.89,30.42,32.56,30.42,19.5,0,32.76-13.84,32.76-30.42s-13.84-30.81-32.76-30.81c-20.08,0-32.56,13.84-32.56,30.81Z"/>
      <path class="cls-3" d="M594.83,35.44h-44.07v-16.18h105.68v16.18h-44.07v120.31h-17.55V35.44Z"/>
      <path class="cls-3" d="M642.8,105.83c0-29.83,20.67-51.48,50.5-51.48,23.59,0,48.55,15.21,48.55,51.48v6.24h-82.09c2.34,18.13,15.21,30.22,33.93,30.22,12.28,0,23.2-5.65,28.66-16.77h17.35c-6.24,20.08-23.98,31.98-46.02,31.98-30.61,0-50.89-21.64-50.89-51.67ZM724.89,97.25c-3.32-21.06-18.33-27.69-31.59-27.69-17.74,0-30.03,10.72-33.15,27.69h64.74Z"/>
      <path class="cls-3" d="M749.65,122.79h16.77c.39,12.67,11.11,19.11,25.35,19.11s24.37-5.46,24.37-14.82c0-6.63-2.92-12.28-16.18-13.84l-17.55-2.15c-17.35-2.15-28.66-11.5-28.66-27.1,0-16.57,14.23-29.64,37.24-29.64s39.97,12.67,39.78,32.17h-16.18c-.59-11.31-10.33-17.35-23.59-17.35s-20.86,6.24-20.86,14.04,6.24,11.31,15.01,12.48l17.35,2.15c19.69,2.34,30.22,12.87,30.22,29.25,0,18.13-16.77,30.42-40.95,30.42s-41.53-12.87-42.12-34.71Z"/>
      <path class="cls-3" d="M858.84,137.22v-66.49h-20.28v-14.62h20.67v-25.74h16.18v25.74h30.22v14.62h-30.22v69.81h28.66v15.21h-26.52c-13.26,0-18.72-7.6-18.72-18.52Z"/>
      <path class="cls-3" d="M913.44,122.79h16.77c.39,12.67,11.11,19.11,25.35,19.11s24.37-5.46,24.37-14.82c0-6.63-2.92-12.28-16.18-13.84l-17.55-2.15c-17.35-2.15-28.66-11.5-28.66-27.1,0-16.57,14.23-29.64,37.24-29.64s39.97,12.67,39.78,32.17h-16.18c-.59-11.31-10.33-17.35-23.59-17.35s-20.86,6.24-20.86,14.04,6.24,11.31,15.01,12.48l17.35,2.15c19.69,2.34,30.22,12.87,30.22,29.25,0,18.13-16.77,30.42-40.95,30.42s-41.53-12.87-42.12-34.71Z"/>
    </g>
    <g>
      <circle class="cls-2" cx="113.08" cy="64.62" r="16.15"/>
      <circle class="cls-2" cx="113.08" cy="111.28" r="16.15"/>
      <circle class="cls-2" cx="16.15" cy="64.62" r="16.15"/>
      <circle class="cls-2" cx="16.15" cy="16.15" r="16.15"/>
      <circle class="cls-2" cx="113.08" cy="16.15" r="16.15"/>
      <circle class="cls-2" cx="16.15" cy="111.28" r="16.15"/>
      <circle class="cls-2" cx="64.62" cy="111.28" r="16.15"/>
      <circle class="cls-3" cx="64.62" cy="64.62" r="16.15"/>
      <circle class="cls-2" cx="64.62" cy="16.15" r="16.15"/>
      <circle class="cls-1" cx="16.15" cy="111.28" r="16.15"/>
      <circle class="cls-3" cx="258.46" cy="112.18" r="16.15"/>
      <circle class="cls-3" cx="258.46" cy="158.85" r="16.15"/>
      <circle class="cls-3" cx="161.54" cy="112.18" r="16.15"/>
      <circle class="cls-3" cx="161.54" cy="63.72" r="16.15"/>
      <circle class="cls-3" cx="258.46" cy="63.72" r="16.15"/>
      <circle class="cls-3" cx="161.54" cy="158.85" r="16.15"/>
      <circle class="cls-3" cx="210" cy="158.85" r="16.15"/>
      <circle class="cls-2" cx="210" cy="112.18" r="16.15"/>
      <circle class="cls-3" cx="210" cy="63.72" r="16.15"/>
      <circle class="cls-3" cx="161.54" cy="158.85" r="16.15"/>
    </g>
  </g>
</svg>