<?xml version="1.0" encoding="UTF-8"?>
<svg id="Camada_2" data-name="Camada 2" xmlns="http://www.w3.org/2000/svg" viewBox="0 0 1089.66 200">
  <defs>
    <style>
      .cls-1 {
        fill: #5c564f;
      }

      .cls-2 {
        fill: #008c95;
      }

      .cls-3 {
        fill: #007680;
      }
    </style>
  </defs>
  <g id="Camada_1-2" data-name="Camada 1">
    <g>
      <path class="cls-2" d="M492.58,97.7c0,40.95-17.76,77.3-58.91,77.3-25.28,0-44.92-16.71-47.63-37.81h18.18c2.3,12.74,14.41,21.1,29.46,21.1,29.46,0,41.16-25.28,41.16-55.78-7.31,11.7-21.94,20.89-40.53,20.89-28.83,0-50.35-21.73-50.35-48.68s22.15-49.72,52.44-49.72c37.81,0,56.2,31.34,56.2,72.7ZM401.71,74.72c0,17.76,12.74,32.59,34.89,32.59,20.89,0,35.1-14.83,35.1-32.59s-14.83-33.01-35.1-33.01c-21.52,0-34.89,14.83-34.89,33.01Z"/>
      <path class="cls-2" d="M609.99,97.7c0,40.95-17.76,77.3-58.91,77.3-25.28,0-44.92-16.71-47.63-37.81h18.18c2.3,12.74,14.41,21.1,29.46,21.1,29.46,0,41.16-25.28,41.16-55.78-7.31,11.7-21.94,20.89-40.53,20.89-28.83,0-50.35-21.73-50.35-48.68s22.15-49.72,52.44-49.72c37.81,0,56.2,31.34,56.2,72.7ZM519.11,74.72c0,17.76,12.74,32.59,34.89,32.59,20.89,0,35.1-14.83,35.1-32.59s-14.83-33.01-35.1-33.01c-21.52,0-34.89,14.83-34.89,33.01Z"/>
      <path class="cls-1" d="M659.3,44.22h-47.22v-17.34h113.23v17.34h-47.21v128.9h-18.8V44.22Z"/>
      <path class="cls-1" d="M710.69,119.64c0-31.96,22.15-55.15,54.11-55.15,25.28,0,52.02,16.3,52.02,55.15v6.69h-87.95c2.51,19.43,16.3,32.38,36.35,32.38,13.16,0,24.86-6.06,30.71-17.97h18.59c-6.69,21.52-25.7,34.26-49.3,34.26-32.8,0-54.53-23.19-54.53-55.36ZM798.64,110.45c-3.55-22.56-19.64-29.67-33.84-29.67-19.01,0-32.17,11.49-35.52,29.67h69.36Z"/>
      <path class="cls-1" d="M825.18,137.81h17.97c.42,13.58,11.91,20.47,27.16,20.47s26.11-5.85,26.11-15.88c0-7.1-3.13-13.16-17.34-14.83l-18.8-2.3c-18.59-2.3-30.71-12.33-30.71-29.04,0-17.76,15.25-31.76,39.9-31.76s42.83,13.58,42.62,34.47h-17.34c-.63-12.12-11.07-18.59-25.28-18.59s-22.35,6.68-22.35,15.04,6.69,12.12,16.09,13.37l18.59,2.3c21.1,2.51,32.38,13.79,32.38,31.34,0,19.43-17.97,32.59-43.87,32.59s-44.5-13.79-45.13-37.19Z"/>
      <path class="cls-1" d="M942.17,153.27v-71.24h-21.73v-15.67h22.14v-27.58h17.34v27.58h32.38v15.67h-32.38v74.79h30.71v16.3h-28.41c-14.21,0-20.06-8.15-20.06-19.85Z"/>
      <path class="cls-1" d="M1000.66,137.81h17.97c.42,13.58,11.91,20.47,27.16,20.47s26.11-5.85,26.11-15.88c0-7.1-3.13-13.16-17.34-14.83l-18.8-2.3c-18.59-2.3-30.71-12.33-30.71-29.04,0-17.76,15.25-31.76,39.9-31.76s42.83,13.58,42.62,34.47h-17.34c-.63-12.12-11.07-18.59-25.28-18.59s-22.35,6.68-22.35,15.04,6.69,12.12,16.09,13.37l18.59,2.3c21.1,2.51,32.38,13.79,32.38,31.34,0,19.43-17.97,32.59-43.87,32.59s-44.5-13.79-45.13-37.19Z"/>
    </g>
    <g>
      <circle class="cls-3" cx="127.93" cy="72.07" r="16.22"/>
      <circle class="cls-3" cx="127.93" cy="127.93" r="16.22"/>
      <circle class="cls-1" cx="181.02" cy="127.93" r="16.22"/>
      <circle class="cls-1" cx="181.02" cy="72.07" r="16.22"/>
      <circle class="cls-3" cx="16.22" cy="72.07" r="16.22"/>
      <circle class="cls-3" cx="16.22" cy="16.22" r="16.22"/>
      <circle class="cls-3" cx="127.93" cy="16.22" r="16.22"/>
      <circle class="cls-3" cx="16.22" cy="127.93" r="16.22"/>
      <circle class="cls-3" cx="72.07" cy="127.93" r="16.22"/>
      <circle class="cls-1" cx="72.07" cy="72.07" r="16.22"/>
      <circle class="cls-3" cx="72.07" cy="16.22" r="16.22"/>
      <circle class="cls-1" cx="292.73" cy="127.93" r="16.22"/>
      <circle class="cls-1" cx="292.73" cy="72.07" r="16.22"/>
      <circle class="cls-1" cx="181.02" cy="183.78" r="16.22"/>
      <circle class="cls-1" cx="292.73" cy="183.78" r="16.22"/>
      <circle class="cls-1" cx="236.88" cy="183.78" r="16.22"/>
      <circle class="cls-3" cx="236.88" cy="127.93" r="16.22"/>
      <circle class="cls-1" cx="236.88" cy="72.07" r="16.22"/>
    </g>
  </g>
</svg>