<?xml version="1.0" encoding="UTF-8"?>
<svg id="Camada_2" data-name="Camada 2" xmlns="http://www.w3.org/2000/svg" viewBox="0 0 996.83 175">
  <defs>
    <style>
      .cls-1 {
        opacity: .5;
      }

      .cls-1, .cls-2 {
        fill: #007680;
      }

      .cls-3 {
        fill: #5c564f;
      }

      .cls-4 {
        fill: #008c95;
      }
    </style>
  </defs>
  <g id="Camada_1-2" data-name="Camada 1">
    <path class="cls-4" d="M441.51,85.36c0,38.22-16.57,72.14-56.16,72.14-26.32,0-42.9-17.35-45.63-36.66h21.45c1.75,9.75,10.92,17.55,24.37,17.55,24.57,0,34.9-20.86,34.9-45.43-6.82,9.94-19.5,17.16-35.1,17.16-27.88,0-47.38-21.06-47.38-45.82,0-26.32,21.06-46.8,50.11-46.8,35.68,0,53.43,29.25,53.43,67.86ZM359.23,64.3c0,15.21,11.11,26.52,29.05,26.52,16.77,0,29.25-11.31,29.25-26.52s-12.87-27.1-29.25-27.1c-17.55,0-29.05,11.5-29.05,27.1Z"/>
    <path class="cls-4" d="M551.09,85.36c0,38.22-16.57,72.14-56.16,72.14-26.32,0-42.9-17.35-45.63-36.66h21.45c1.75,9.75,10.92,17.55,24.37,17.55,24.57,0,34.9-20.86,34.9-45.43-6.82,9.94-19.5,17.16-35.1,17.16-27.88,0-47.38-21.06-47.38-45.82,0-26.32,21.06-46.8,50.11-46.8,35.68,0,53.43,29.25,53.43,67.86ZM468.81,64.3c0,15.21,11.11,26.52,29.05,26.52,16.77,0,29.25-11.31,29.25-26.52s-12.87-27.1-29.25-27.1c-17.55,0-29.05,11.5-29.05,27.1Z"/>
    <g>
      <circle class="cls-2" cx="113.08" cy="64.62" r="16.15"/>
      <circle class="cls-2" cx="113.08" cy="111.28" r="16.15"/>
      <circle class="cls-2" cx="16.15" cy="64.62" r="16.15"/>
      <circle class="cls-2" cx="16.15" cy="16.15" r="16.15"/>
      <circle class="cls-2" cx="113.08" cy="16.15" r="16.15"/>
      <circle class="cls-2" cx="16.15" cy="111.28" r="16.15"/>
      <circle class="cls-2" cx="64.62" cy="111.28" r="16.15"/>
      <circle class="cls-3" cx="64.62" cy="64.62" r="16.15"/>
      <circle class="cls-2" cx="64.62" cy="16.15" r="16.15"/>
      <circle class="cls-1" cx="16.15" cy="111.28" r="16.15"/>
      <circle class="cls-3" cx="258.46" cy="112.18" r="16.15"/>
      <circle class="cls-3" cx="258.46" cy="158.85" r="16.15"/>
      <circle class="cls-3" cx="161.54" cy="112.18" r="16.15"/>
      <circle class="cls-3" cx="161.54" cy="63.72" r="16.15"/>
      <circle class="cls-3" cx="258.46" cy="63.72" r="16.15"/>
      <circle class="cls-3" cx="161.54" cy="158.85" r="16.15"/>
      <circle class="cls-3" cx="210" cy="158.85" r="16.15"/>
      <circle class="cls-2" cx="210" cy="112.18" r="16.15"/>
      <circle class="cls-3" cx="210" cy="63.72" r="16.15"/>
      <circle class="cls-3" cx="161.54" cy="158.85" r="16.15"/>
    </g>
    <g>
      <polygon class="cls-3" points="656.77 19.25 551.09 19.25 551.09 35.44 595.16 35.44 595.16 155.74 612.71 155.74 612.71 35.44 656.77 35.44 656.77 19.25"/>
      <path class="cls-3" d="M693.63,54.35c-29.83,0-50.5,21.64-50.5,51.48s20.28,51.67,50.89,51.67c22.03,0,39.78-11.89,46.02-31.98h-17.35c-5.46,11.11-16.38,16.77-28.66,16.77-18.72,0-31.59-12.09-33.93-30.22h82.09v-6.24c0-36.27-24.96-51.48-48.55-51.48ZM660.48,97.25c3.12-16.96,15.4-27.69,33.15-27.69,13.26,0,28.27,6.63,31.59,27.69h-64.74Z"/>
      <path class="cls-3" d="M802.82,97.83l-17.35-2.15c-8.77-1.17-15.01-4.87-15.01-12.48s7.6-14.04,20.86-14.04,23.01,6.04,23.59,17.35h16.18c.19-19.5-15.99-32.17-39.78-32.17s-37.24,13.06-37.24,29.64c0,15.6,11.31,24.96,28.66,27.1l17.55,2.15c13.26,1.56,16.18,7.21,16.18,13.84,0,9.36-10.33,14.82-24.37,14.82s-24.96-6.43-25.35-19.11h-16.77c.58,21.84,17.16,34.71,42.12,34.71s40.95-12.28,40.95-30.42c0-16.38-10.53-26.91-30.22-29.25Z"/>
      <path class="cls-3" d="M875.74,30.37h-16.18v25.74h-20.67v14.62h20.28v66.49c0,10.92,5.46,18.52,18.72,18.52h26.52v-15.21h-28.66v-69.81h30.22v-14.62h-30.22v-25.74Z"/>
      <path class="cls-3" d="M966.61,97.83l-17.35-2.15c-8.77-1.17-15.01-4.87-15.01-12.48s7.6-14.04,20.86-14.04,23.01,6.04,23.59,17.35h16.18c.19-19.5-15.99-32.17-39.78-32.17s-37.24,13.06-37.24,29.64c0,15.6,11.31,24.96,28.66,27.1l17.55,2.15c13.26,1.56,16.18,7.21,16.18,13.84,0,9.36-10.33,14.82-24.37,14.82s-24.96-6.43-25.35-19.11h-16.77c.58,21.84,17.16,34.71,42.12,34.71s40.95-12.28,40.95-30.42c0-16.38-10.53-26.91-30.22-29.25Z"/>
    </g>
  </g>
</svg>