<?xml version="1.0" encoding="UTF-8"?>
<svg id="Camada_2" data-name="Camada 2" xmlns="http://www.w3.org/2000/svg" viewBox="0 0 1093.41 200">
  <defs>
    <style>
      .cls-1 {
        fill: #5c564f;
      }

      .cls-2 {
        fill: #008c95;
      }

      .cls-3 {
        fill: #007680;
      }
    </style>
  </defs>
  <g id="Camada_1-2" data-name="Camada 1">
    <g>
      <circle class="cls-3" cx="127.93" cy="72.07" r="16.22"/>
      <circle class="cls-3" cx="127.93" cy="127.93" r="16.22"/>
      <circle class="cls-1" cx="181.02" cy="127.93" r="16.22"/>
      <circle class="cls-1" cx="181.02" cy="72.07" r="16.22"/>
      <circle class="cls-3" cx="16.22" cy="72.07" r="16.22"/>
      <circle class="cls-3" cx="16.22" cy="16.22" r="16.22"/>
      <circle class="cls-3" cx="127.93" cy="16.22" r="16.22"/>
      <circle class="cls-3" cx="16.22" cy="127.93" r="16.22"/>
      <circle class="cls-3" cx="72.07" cy="127.93" r="16.22"/>
      <circle class="cls-1" cx="72.07" cy="72.07" r="16.22"/>
      <circle class="cls-3" cx="72.07" cy="16.22" r="16.22"/>
      <circle class="cls-1" cx="292.73" cy="127.93" r="16.22"/>
      <circle class="cls-1" cx="292.73" cy="72.07" r="16.22"/>
      <circle class="cls-1" cx="181.02" cy="183.78" r="16.22"/>
      <circle class="cls-1" cx="292.73" cy="183.78" r="16.22"/>
      <circle class="cls-1" cx="236.88" cy="183.78" r="16.22"/>
      <circle class="cls-3" cx="236.88" cy="127.93" r="16.22"/>
      <circle class="cls-1" cx="236.88" cy="72.07" r="16.22"/>
    </g>
    <path class="cls-2" d="M436.9,175c-10.71,0-19.95-1.82-27.71-5.46-7.76-3.64-13.77-8.79-18.03-15.45-4.26-6.66-6.39-14.53-6.39-23.59h24.31c0,6.32,2.23,11.74,6.7,16.28,4.46,4.53,11.5,6.8,21.12,6.8s17.27-2.58,22.56-7.73c5.29-5.15,7.93-12.26,7.93-21.33v-16.07h-3.5c-2.47,3.16-6.18,6.08-11.13,8.76-4.95,2.68-12.23,4.02-21.84,4.02-8.38,0-16.14-1.78-23.28-5.36-7.14-3.57-12.88-8.79-17.2-15.66-4.33-6.87-6.49-15.11-6.49-24.73v-2.47c0-9.75,2.27-18.2,6.8-25.34,4.53-7.14,10.85-12.7,18.96-16.69,8.1-3.98,17.51-5.98,28.23-5.98s20.09,2.03,28.12,6.08c8.04,4.05,14.25,9.72,18.65,17,4.39,7.28,6.59,15.73,6.59,25.34v49.66c0,11.4-2.3,20.95-6.9,28.64-4.6,7.69-10.99,13.5-19.16,17.41-8.17,3.92-17.62,5.87-28.33,5.87ZM437.52,102.06c6.18,0,11.47-1.13,15.87-3.4,4.39-2.27,7.83-5.43,10.3-9.48,2.47-4.05,3.71-8.83,3.71-14.32v-1.65c0-8.24-2.68-14.77-8.04-19.57-5.36-4.81-12.64-7.21-21.84-7.21s-16.28,2.41-21.63,7.21c-5.36,4.81-8.04,11.33-8.04,19.57v1.65c0,5.5,1.24,10.27,3.71,14.32,2.47,4.05,5.94,7.21,10.41,9.48,4.46,2.27,9.65,3.4,15.56,3.4Z"/>
    <path class="cls-2" d="M551.67,175c-10.71,0-19.95-1.82-27.71-5.46-7.76-3.64-13.77-8.79-18.03-15.45-4.26-6.66-6.39-14.53-6.39-23.59h24.31c0,6.32,2.23,11.74,6.7,16.28,4.46,4.53,11.5,6.8,21.12,6.8s17.27-2.58,22.56-7.73c5.29-5.15,7.93-12.26,7.93-21.33v-16.07h-3.5c-2.47,3.16-6.18,6.08-11.13,8.76-4.95,2.68-12.23,4.02-21.84,4.02-8.38,0-16.14-1.78-23.28-5.36-7.14-3.57-12.88-8.79-17.2-15.66-4.33-6.87-6.49-15.11-6.49-24.73v-2.47c0-9.75,2.27-18.2,6.8-25.34,4.53-7.14,10.85-12.7,18.96-16.69,8.1-3.98,17.51-5.98,28.23-5.98s20.09,2.03,28.12,6.08c8.04,4.05,14.25,9.72,18.65,17,4.39,7.28,6.59,15.73,6.59,25.34v49.66c0,11.4-2.3,20.95-6.9,28.64-4.6,7.69-10.99,13.5-19.16,17.41-8.17,3.92-17.62,5.87-28.33,5.87ZM552.28,102.06c6.18,0,11.47-1.13,15.87-3.4,4.39-2.27,7.83-5.43,10.3-9.48,2.47-4.05,3.71-8.83,3.71-14.32v-1.65c0-8.24-2.68-14.77-8.04-19.57-5.36-4.81-12.64-7.21-21.84-7.21s-16.28,2.41-21.63,7.21c-5.36,4.81-8.04,11.33-8.04,19.57v1.65c0,5.5,1.24,10.27,3.71,14.32,2.47,4.05,5.94,7.21,10.41,9.48,4.46,2.27,9.65,3.4,15.56,3.4Z"/>
    <g>
      <polygon class="cls-1" points="724.44 25 609.77 25 609.77 42.56 657.58 42.56 657.58 173.1 676.62 173.1 676.62 42.56 724.44 42.56 724.44 25"/>
      <path class="cls-1" d="M764.42,63.08c-32.37,0-54.79,23.48-54.79,55.85s22,56.06,55.22,56.06c23.91,0,43.16-12.91,49.93-34.7h-18.83c-5.92,12.06-17.77,18.19-31.1,18.19-20.31,0-34.27-13.12-36.81-32.79h89.07v-6.77c0-39.35-27.08-55.85-52.68-55.85ZM728.46,109.63c3.39-18.41,16.71-30.04,35.97-30.04,14.39,0,30.68,7.19,34.27,30.04h-70.24Z"/>
      <path class="cls-1" d="M882.9,110.26l-18.83-2.33c-9.52-1.27-16.29-5.29-16.29-13.54s8.25-15.23,22.64-15.23,24.97,6.56,25.6,18.83h17.56c.21-21.16-17.35-34.91-43.16-34.91s-40.41,14.17-40.41,32.16c0,16.93,12.27,27.08,31.1,29.41l19.04,2.33c14.39,1.69,17.56,7.83,17.56,15.02,0,10.16-11.21,16.08-26.45,16.08s-27.08-6.98-27.5-20.73h-18.19c.63,23.7,18.62,37.66,45.7,37.66s44.43-13.33,44.43-33c0-17.77-11.43-29.2-32.79-31.73Z"/>
      <path class="cls-1" d="M962.03,37.06h-17.56v27.93h-22.43v15.87h22v72.14c0,11.85,5.92,20.1,20.31,20.1h28.77v-16.5h-31.1v-75.74h32.79v-15.87h-32.79v-27.93Z"/>
      <path class="cls-1" d="M1060.61,110.26l-18.83-2.33c-9.52-1.27-16.29-5.29-16.29-13.54s8.25-15.23,22.64-15.23,24.97,6.56,25.6,18.83h17.56c.21-21.16-17.35-34.91-43.16-34.91s-40.41,14.17-40.41,32.16c0,16.93,12.27,27.08,31.1,29.41l19.04,2.33c14.39,1.69,17.56,7.83,17.56,15.02,0,10.16-11.21,16.08-26.45,16.08s-27.08-6.98-27.5-20.73h-18.19c.64,23.7,18.62,37.66,45.7,37.66s44.43-13.33,44.43-33c0-17.77-11.43-29.2-32.79-31.73Z"/>
    </g>
  </g>
</svg>